<svg width="36" height="36" viewBox="0 0 36 36" fill="none" xmlns="http://www.w3.org/2000/svg">
<path d="M17.9998 13.3139C15.4194 13.3139 13.3135 15.4198 13.3135 18.0003C13.3135 20.5807 15.4194 22.6866 17.9998 22.6866C20.5803 22.6866 22.6862 20.5807 22.6862 18.0003C22.6862 15.4198 20.5803 13.3139 17.9998 13.3139ZM32.0553 18.0003C32.0553 16.0596 32.0729 14.1366 31.9639 12.1995C31.8549 9.94948 31.3416 7.95261 29.6963 6.3073C28.0475 4.65847 26.0541 4.1487 23.8041 4.03972C21.8635 3.93073 19.9405 3.94831 18.0034 3.94831C16.0627 3.94831 14.1397 3.93073 12.2026 4.03972C9.95258 4.1487 7.95571 4.66198 6.31039 6.3073C4.66157 7.95612 4.1518 9.94948 4.04282 12.1995C3.93383 14.1401 3.95141 16.0632 3.95141 18.0003C3.95141 19.9374 3.93383 21.8639 4.04282 23.801C4.1518 26.051 4.66508 28.0479 6.31039 29.6932C7.95922 31.3421 9.95258 31.8518 12.2026 31.9608C14.1432 32.0698 16.0663 32.0522 18.0034 32.0522C19.944 32.0522 21.867 32.0698 23.8041 31.9608C26.0541 31.8518 28.051 31.3385 29.6963 29.6932C31.3452 28.0444 31.8549 26.051 31.9639 23.801C32.0764 21.8639 32.0553 19.9409 32.0553 18.0003ZM17.9998 25.2108C14.0096 25.2108 10.7893 21.9905 10.7893 18.0003C10.7893 14.01 14.0096 10.7897 17.9998 10.7897C21.9901 10.7897 25.2104 14.01 25.2104 18.0003C25.2104 21.9905 21.9901 25.2108 17.9998 25.2108ZM25.5057 12.1784C24.5741 12.1784 23.8217 11.426 23.8217 10.4944C23.8217 9.56276 24.5741 8.81042 25.5057 8.81042C26.4373 8.81042 27.1897 9.56276 27.1897 10.4944C27.19 10.7156 27.1466 10.9347 27.0621 11.1392C26.9775 11.3436 26.8535 11.5294 26.6971 11.6858C26.5407 11.8422 26.3549 11.9662 26.1505 12.0508C25.946 12.1353 25.7269 12.1787 25.5057 12.1784Z" fill="white"/>
</svg>
