<svg width="36" height="36" viewBox="0 0 36 36" fill="none" xmlns="http://www.w3.org/2000/svg">
<path d="M7.05825 0.00878906C3.18044 0.00878906 0.00668335 3.18248 0.00668335 7.06036V28.9426C0.00668335 32.8204 3.18037 35.9931 7.05825 35.9931H28.9405C32.8184 35.9931 35.9909 32.8205 35.9909 28.9426V7.06036C35.9909 3.18255 32.8184 0.00878906 28.9405 0.00878906H7.05825ZM8.83183 5.94692C10.6912 5.94692 11.8364 7.16753 11.8718 8.77202C11.8718 10.3411 10.6911 11.596 8.79586 11.596H8.76098C6.93704 11.596 5.75815 10.3411 5.75815 8.77202C5.75815 7.16757 6.97272 5.94692 8.83179 5.94692H8.83183ZM24.8547 13.4461C28.4305 13.4461 31.1111 15.7833 31.1111 20.8058V30.1819H25.6768V21.4344C25.6768 19.2362 24.8903 17.7366 22.9237 17.7366C21.4223 17.7366 20.5275 18.7474 20.1346 19.7238C19.991 20.0732 19.9557 20.5611 19.9557 21.0498V30.1819H14.5214C14.5214 30.1819 14.5928 15.3639 14.5214 13.8295H19.9569V16.1452C20.679 15.031 21.9708 13.446 24.8547 13.446V13.4461ZM6.07869 13.8307H11.513V30.182H6.07869V13.8307Z" fill="white"/>
</svg>
